<?xml version="1.0" encoding="utf-8"?>
<!-- Generator: Adobe Illustrator 25.0.0, SVG Export Plug-In . SVG Version: 6.00 Build 0)  -->
<svg version="1.1" id="svg2" xmlns:svg="http://www.w3.org/2000/svg"
	 xmlns="http://www.w3.org/2000/svg" xmlns:xlink="http://www.w3.org/1999/xlink" x="0px" y="0px" viewBox="0 0 100 100"
	 style="enable-background:new 0 0 100 100;" xml:space="preserve">
<style type="text/css">
	.st0{fill-rule:evenodd;clip-rule:evenodd;fill:#6ABD45;}
</style>
<path id="path1873" class="st0" d="M67.3,87.2v-2.1c0,0-6.6,0.1-8.5-1.3c-1.9-1.5-3-4-3-7.8s0-12,0-12s17.6-1.9,23.1-7.4
	s7.1-14.6,7.1-20.1c0-2.8,0-10.2,0-14.1c0-2.4,0.4-6.6,3.7-6.6c1.6,0,4.1,0,4.1,0v-2.8c0,0-3.4-0.1-5.6-0.1s-7.2,0.3-9.8,2.9
	s-4.2,9.7-4.2,21.8S73.3,53,70.2,56c-4.6,4.6-14.4,4.9-14.4,4.9s0-30.7,0-34.9s-0.1-6.5,1.9-8.5s8.6-1.7,8.6-1.7v-3H33.8v3
	c0,0,6.6-0.3,8.6,1.7s1.9,4.2,1.9,8.5s0,34.9,0,34.9s-9.9-0.3-14.4-4.9c-3-3-4.1-6.3-4.1-18.5S24,18.3,21.5,15.7s-7.7-2.9-9.8-2.9
	s-5.6,0.1-5.6,0.1v2.8c0,0,2.5,0,4.1,0c3.2,0,3.7,4.2,3.7,6.6c0,3.9,0,11.4,0,14.1c0,5.6,1.6,14.6,7.1,20.1S44.2,64,44.2,64
	s0,8.2,0,12s-1.2,6.3-3,7.8s-8.5,1.3-8.5,1.3v2.1"/>
</svg>
